<?xml version="1.0" encoding="UTF-8" standalone="no"?>
<svg width="248px" height="98px" viewBox="0 0 248 98" version="1.1" xmlns="http://www.w3.org/2000/svg" xmlns:xlink="http://www.w3.org/1999/xlink" xmlns:sketch="http://www.bohemiancoding.com/sketch/ns">
    <!-- Generator: Sketch 3.1.1 (8761) - http://www.bohemiancoding.com/sketch -->
    <title>meteor-london-logo-on-dark</title>
    <desc>Created with Sketch.</desc>
    <defs>
        <path id="path-1" d="M0,58.9912992 L247,58.9912992 L247,0 L0,0 L0,58.9912992 L0,58.9912992 Z"></path>
    </defs>
    <g id="Page-1" stroke="none" stroke-width="1" fill="none" fill-rule="evenodd" sketch:type="MSPage">
        <g id="Desktop-HD" sketch:type="MSArtboardGroup" transform="translate(-587.000000, -482.000000)">
            <g id="meteor-london-logo-on-dark" sketch:type="MSLayerGroup" transform="translate(587.000000, 482.000000)">
                <g id="meteor-logo">
                    <g id="g10" transform="translate(123.500000, 29.491299) scale(1, -1) translate(-123.500000, -29.491299) translate(0.000000, -0.008701)">
                        <g id="g12">
                            <g id="g14-Clipped">
                                <g>
                                    <mask id="mask-2" sketch:name="path-1" fill="white">
                                        <use xlink:href="#path-1"></use>
                                    </mask>
                                    <g id="path-1"></g>
                                    <g id="g14" mask="url(#mask-2)" sketch:type="MSShapeGroup">
                                        <g id="g20" transform="translate(147.369298, 3.739746)" fill="#DE4F4F">
                                            <path d="M51.0466667,0.828651685 L0.160138333,55.2515941 L54.2333783,4.03594803 C55.14028,3.17746489 55.183505,1.74141152 54.33012,0.828651685 C53.4771467,-0.0841081461 52.05031,-0.12761236 51.1434083,0.731285112 C51.11171,0.761530899 51.0763067,0.797162921 51.0466667,0.828651685" id="path22"></path>
                                        </g>
                                        <g id="g24" transform="translate(152.651969, -0.098610)" fill="#DE4F4F">
                                            <path d="M38.285,0.828651685 L-0.0848033333,42.6536025 L41.4717117,4.03594803 C42.3868467,3.1857514 42.4436567,1.74969803 41.5989167,0.828651685 C40.753765,-0.0923946629 39.32734,-0.149571629 38.412205,0.700625 C38.36898,0.740814607 38.32452,0.785976124 38.285,0.828651685" id="path26"></path>
                                        </g>
                                        <g id="g28" transform="translate(157.638117, 0.203227)" fill="#DE4F4F">
                                            <path d="M25.5233333,0.414325843 L0.0242883333,28.2164185 L27.647945,2.55266152 C28.258035,1.98586376 28.2959083,1.02835674 27.7327483,0.414325843 C27.1695883,-0.199705056 26.2186383,-0.23823736 25.6081367,0.328974719 C25.57932,0.355491573 25.54968,0.38573736 25.5233333,0.414325843" id="path30"></path>
                                        </g>
                                        <g id="g32" transform="translate(177.768205, 19.446218)" fill="#DE4F4F">
                                            <path d="M26.7583333,0.414325843 L0.136673333,29.3462851 L28.882945,2.55266152 C29.4922117,1.98462079 29.5284383,1.02752809 28.964455,0.414325843 C28.40006,-0.198876404 27.44911,-0.235337079 26.8398433,0.332289326 C26.8122617,0.357977528 26.783445,0.386980337 26.7583333,0.414325843" id="path34"></path>
                                        </g>
                                        <g id="g36" transform="translate(163.533019, 10.931697)" fill="#DE4F4F">
                                            <path d="M38.6966667,0.828651685 L0.160138333,42.8214045 L41.8833783,4.03594803 C42.7985133,3.1857514 42.8553233,1.74969803 42.0101717,0.828651685 C41.16502,-0.0923946629 39.7381833,-0.149157303 38.8230483,0.701453652 C38.780235,0.741228933 38.735775,0.786390449 38.6966667,0.828651685" id="path38"></path>
                                        </g>
                                        <g id="g40" transform="translate(162.944747, 2.813190)" fill="#DE4F4F">
                                            <path d="M12.2676667,0.0828651685 L0.137085,13.3611798 L13.3297667,1.15182584 C13.635635,0.869255618 13.655395,0.390294944 13.3746383,0.0828651685 C13.09347,-0.224564607 12.617995,-0.244866573 12.3121267,0.0381179775 C12.296895,0.0522050562 12.2816633,0.0679494382 12.2676667,0.0828651685" id="path42"></path>
                                        </g>
                                        <g id="g44" transform="translate(191.307387, 29.390162)" fill="#DE4F4F">
                                            <path d="M12.2676667,0.0828651685 L0.137085,13.3611798 L13.3297667,1.15182584 C13.635635,0.869255618 13.655395,0.390294944 13.3746383,0.0828651685 C13.09347,-0.224564607 12.617995,-0.244866573 12.3121267,0.0381179775 C12.296895,0.0522050562 12.2816633,0.0679494382 12.2676667,0.0828651685" id="path46"></path>
                                        </g>
                                        <g id="g48" transform="translate(0.000000, 0.447721)" fill="#FFFFFF">
                                            <path d="M0,36.875 L8.64417667,36.875 L18.2253067,21.3622261 L27.8064367,36.875 L36.4506133,36.875 L36.4506133,0.188932584 L28.5354983,0.188932584 L28.5354983,24.1398666 L18.2771767,8.46964888 L18.069285,8.46964888 L7.91470333,23.9824228 L7.91470333,0.188932584 L0,0.188932584 L0,36.875 L0,36.875 Z" id="path50"></path>
                                        </g>
                                        <g id="g52" transform="translate(46.500467, 0.447721)" fill="#FFFFFF">
                                            <path d="M0,36.875 L27.4421117,36.875 L27.4421117,29.6947331 L7.91470333,29.6947331 L7.91470333,22.2530267 L25.098905,22.2530267 L25.098905,15.0731742 L7.91470333,15.0731742 L7.91470333,7.36919944 L27.702285,7.36919944 L27.702285,0.188932584 L0,0.188932584 L0,36.875 L0,36.875 Z" id="path54"></path>
                                        </g>
                                        <g id="g56" transform="translate(83.968720, 0.463713)" fill="#FFFFFF">
                                            <path d="M11.115,29.4171348 L0.0238766667,29.4171348 L0.0238766667,36.8588413 L30.2258017,36.8588413 L30.2258017,29.4171348 L19.1342667,29.4171348 L19.1342667,0.173188202 L11.115,0.173188202 L11.115,29.4171348 L11.115,29.4171348 Z" id="path58"></path>
                                        </g>
                                        <g id="g60" transform="translate(124.244417, 0.447721)" fill="#FFFFFF">
                                            <path d="M0,36.875 L27.4421117,36.875 L27.4421117,29.6947331 L7.915115,29.6947331 L7.915115,22.2530267 L25.098905,22.2530267 L25.098905,15.0731742 L7.915115,15.0731742 L7.915115,7.36919944 L27.702285,7.36919944 L27.702285,0.188932584 L0,0.188932584 L0,36.875 L0,36.875 Z" id="path62"></path>
                                        </g>
                                        <g id="g64" transform="translate(215.584358, 0.444737)" fill="#FFFFFF">
                                            <path d="M16.055,19.0589888 C18.0338817,19.0589888 19.5516967,19.5309059 20.6113267,20.4739115 C21.6697217,21.4173315 22.199125,22.6752247 22.199125,24.2475913 L22.199125,24.3524157 C22.199125,26.0992135 21.643375,27.4093118 20.5326983,28.283125 C19.42161,29.1561096 17.8774483,29.5932233 15.8985667,29.5932233 L7.93117,29.5932233 L7.93117,19.0589888 L16.055,19.0589888 L16.055,19.0589888 Z M-0.087685,36.8779003 L16.5753467,36.8779003 C21.1921883,36.8779003 24.733345,35.6374087 27.1979933,33.1572542 C29.2810267,31.0607654 30.3221317,28.265309 30.3221317,24.7712992 L30.3221317,24.666889 C30.3221317,21.6965871 29.6021267,19.2769242 28.1612933,17.4083146 C26.72046,15.5388764 24.8366733,14.1670435 22.51158,13.2944733 L31.4155183,0.192247191 L22.0426917,0.192247191 L14.23214,11.9313413 L14.1284,11.9313413 L7.93117,11.9313413 L7.93117,0.192247191 L-0.087685,0.192247191 L-0.087685,36.8779003 L-0.087685,36.8779003 Z" id="path66"></path>
                                        </g>
                                    </g>
                                </g>
                            </g>
                        </g>
                    </g>
                </g>
            </g>
        </g>
    </g>
</svg>